<svg width="6" height="7" viewBox="0 0 6 7" fill="none" xmlns="http://www.w3.org/2000/svg">
<path d="M5.43259 4.35066C5.40434 4.37966 5.29764 4.50366 5.19829 4.60566C4.61574 5.24716 3.09599 6.29716 2.30059 6.61766C2.17979 6.66916 1.87437 6.77816 1.7112 6.78516C1.55484 6.78516 1.40579 6.74916 1.26356 6.67616C1.08626 6.57416 0.944028 6.41366 0.866093 6.22416C0.815922 6.09266 0.737988 5.69916 0.737988 5.69216C0.660053 5.26166 0.617188 4.56216 0.617188 3.78916C0.617188 3.05266 0.660052 2.38166 0.723862 1.94466C0.731167 1.93766 0.809102 1.44866 0.894342 1.28116C1.0507 0.975156 1.35611 0.785156 1.68294 0.785156H1.7112C1.92406 0.792656 2.37169 0.982656 2.37169 0.989656C3.12424 1.31066 4.60889 2.30916 5.20559 2.97266C5.20559 2.97266 5.37364 3.14316 5.44669 3.24966C5.56069 3.40266 5.61719 3.59216 5.61719 3.78166C5.61719 3.99316 5.55339 4.19016 5.43259 4.35066Z" fill="white"/>
</svg>
