<svg width="123" height="26" viewBox="0 0 123 26" fill="none" xmlns="http://www.w3.org/2000/svg">
<path d="M13.4596 25L12.4796 19.68H7.08957L6.14457 25H0.68457L6.56457 0.744995H13.1446L19.0246 25H13.4596ZM7.82457 15.725H11.7796L9.78457 4.77L7.82457 15.725Z" fill="#FF0404"/>
<path d="M27.2096 0.744995V20.66H34.8396L34.2796 25H21.7146V0.744995H27.2096Z" fill="#FF0404"/>
<path d="M43.512 0.744995V25H38.017V0.744995H43.512ZM55.202 0.744995L49.182 11.665L55.727 25H49.742L43.687 12.05L49.777 0.744995H55.202Z" fill="#FF0404"/>
<path d="M63.8134 0.744995V25H58.3184V0.744995H63.8134ZM75.5034 0.744995L69.4834 11.665L76.0284 25H70.0434L63.9884 12.05L70.0784 0.744995H75.5034Z" fill="#FF0404"/>
<path d="M80.8597 19.47C81.7231 19.47 82.4347 19.7733 82.9947 20.38C83.5547 20.9867 83.8347 21.71 83.8347 22.55C83.8347 23.39 83.5547 24.1133 82.9947 24.72C82.4347 25.3033 81.7231 25.595 80.8597 25.595C79.9731 25.595 79.2497 25.3033 78.6897 24.72C78.1531 24.1133 77.8847 23.39 77.8847 22.55C77.8847 21.71 78.1531 20.9867 78.6897 20.38C79.2497 19.7733 79.9731 19.47 80.8597 19.47Z" fill="#FF0404"/>
<path d="M98.6652 25L94.7102 15.655H94.5352H93.2052V25H87.7102V0.744995H94.1852C100.205 0.744995 103.215 3.195 103.215 8.095C103.215 9.51833 102.912 10.8017 102.305 11.945C101.722 13.0883 100.8 13.975 99.5402 14.605L104.51 25H98.6652ZM94.3252 11.84C95.4918 11.84 96.3318 11.5483 96.8452 10.965C97.3585 10.3583 97.6152 9.40166 97.6152 8.095C97.6152 6.90499 97.3352 6.03 96.7752 5.47C96.2385 4.91 95.3635 4.63 94.1502 4.63H93.2052V11.84H94.3252Z" fill="#FF0404"/>
<path d="M122.774 18C122.774 19.4467 122.47 20.7417 121.864 21.885C121.257 23.005 120.347 23.9033 119.134 24.58C117.92 25.2333 116.427 25.56 114.654 25.56C111.994 25.56 109.975 24.8717 108.599 23.495C107.222 22.1183 106.534 20.2867 106.534 18V0.744995H112.029V17.755C112.029 19.015 112.227 19.9483 112.624 20.555C113.044 21.1617 113.72 21.465 114.654 21.465C115.587 21.465 116.252 21.1617 116.649 20.555C117.069 19.9483 117.279 19.015 117.279 17.755V0.744995H122.774V18Z" fill="#FF0404"/>
</svg>
